{"title":"This Must Be The Place 2011 CAM XViD DTRG","uid":6906577,"size":1469613113,"categoryP":"video","categoryS":"movies","magnet":"?xt=urn:btih:eb1c01de7d97a503aff86074d8f7363a29432408&amp;dn=This+Must+Be+The+Place+2011+CAM+XViD+DTRG&amp;tr=udp%3A%2F%2Ftracker.openbittorrent.com%3A80&amp;tr=udp%3A%2F%2Fopen.demonii.com%3A1337&amp;tr=udp%3A%2F%2Ftracker.coppersurfer.tk%3A6969&amp;tr=udp%3A%2F%2Fexodus.desync.com%3A6969","seeders":0,"leechers":1,"uploader":".BONE.","files":5,"time":1324617524,"description":"Video\nID : 0\nFormat : MPEG-4 Visual\nFormat profile : Advanced Simple@L5\nFormat settings, BVOP : 1\nFormat settings, QPel : No\nFormat settings, GMC : No warppoints\nFormat settings, Matrix : Default (H.263)\nMuxing mode : Packed bitstream\nCodec ID : XVID\nCodec ID/Hint : XviD\nDuration : 1h 54mn\nBit rate : 1 557 Kbps\nWidth : 672 pixels\nHeight : 282 pixels\nDisplay aspect ratio : 2.40:1\nFrame rate : 23.976 fps\nColor space : YUV\nChroma subsampling : 4:2:0\nBit depth : 8 bits\nScan type : Progressive\nCompression mode : Lossy\nBits/(Pixel*Frame) : 0.343\nStream size : 1.25 GiB (92%)\nWriting library : XviD 64\n\nAudio\nID : 1\nFormat : MPEG Audio\nFormat version : Version 1\nFormat profile : Layer 3\nMode : Joint stereo\nMode extension : MS Stereo\nCodec ID : 55\nCodec ID/Hint : MP3\nDuration : 1h 54mn\nBit rate mode : Variable\nBit rate : 121 Kbps\nChannel(s) : 2 channels\nSampling rate : 44.1 KHz\nCompression mode : Lossy\nStream size : 99.2 MiB (7%)\nAlignment : Aligned on interleaves\nInterleave, duration : 26 ms (0.63 video frame)\nInterleave, preload duration : 535 ms\n\n\n &lt;a href=&quot;\nhttp://www.imdb.com/title/tt1440345/&quot; rel=&quot;nofollow&quot; target=&quot;_NEW&quot;&gt;\nhttp://www.imdb.com/title/tt1440345/&lt;/a&gt;\n\n &lt;a href=&quot;\nhttp://img207.imageshack.us/img207/2221/vlcsnap2011122215h09m06.png&quot; rel=&quot;nofollow&quot; target=&quot;_NEW&quot;&gt;\nhttp://img207.imageshack.us/img207/2221/vlcsnap2011122215h09m06.png&lt;/a&gt;\n &lt;a href=&quot;\nhttp://img651.imageshack.us/img651/8769/vlcsnap2011122215h09m36.png&quot; rel=&quot;nofollow&quot; target=&quot;_NEW&quot;&gt;\nhttp://img651.imageshack.us/img651/8769/vlcsnap2011122215h09m36.png&lt;/a&gt;\n &lt;a href=&quot;\nhttp://img31.imageshack.us/img31/7378/vlcsnap2011122215h09m12.png&quot; rel=&quot;nofollow&quot; target=&quot;_NEW&quot;&gt;\nhttp://img31.imageshack.us/img31/7378/vlcsnap2011122215h09m12.png&lt;/a&gt;\n\nStoryline\n\nCheyenne, a wealthy former rock star (Penn), now bored and jaded in his retirement embarks on a quest to find his father's persecutor, an ex-Nazi war criminal now hiding out in the U.S. Learning his father is close to death, he travels to New York in the hope of being reconciled with him during his final hours, only to arrive too late. Having been estranged for over 30 years, it is only now in death that he learns the true extent of his father's humiliation in Auschwitz at the hands of former SS Officer Aloise Muller - an event he is determined to avenge. So begins a life-altering journey across the heartland of America to track down and confront his father's nemesis. As his quest unfolds, Cheyenne is reawakened by the people he encounters and his journey is transformed into one of reconciliation and self discovery. As his date with destiny arrives and he tracks down Muller, Cheyenne must finally decide if it is redemption he seeks ...\n\n\nSource Used\n\n\n\n\nEvolution .............Thanks\n\n\n\n\nI dont even know what this movie is never even heard of it .......but here goes \n\n\nFiltered it plenty vid is pretty good \n\nSample included tho so check it out\n\n\n\nEnjoy\n\n\n\n\n\nGreetz to EMBER,ETRG,BHRG,FYA,26k,CreWSaDe,RemixHD.......and maybe many more","torrent":{"xt":"urn:btih:eb1c01de7d97a503aff86074d8f7363a29432408","amp;dn":"This+Must+Be+The+Place+2011+CAM+XViD+DTRG","amp;tr":["udp%3A%2F%2Ftracker.openbittorrent.com%3A80","udp%3A%2F%2Fopen.demonii.com%3A1337","udp%3A%2F%2Ftracker.coppersurfer.tk%3A6969","udp%3A%2F%2Fexodus.desync.com%3A6969"],"infoHash":"eb1c01de7d97a503aff86074d8f7363a29432408","infoHashBuffer":{"type":"Buffer","data":[235,28,1,222,125,151,165,3,175,248,96,116,216,247,54,58,41,67,36,8]},"announce":[],"urlList":[]}}